HIERARCHY
ROOT Hips
{
	OFFSET 0.000000 103.266502 0.000000
	CHANNELS 6 Xposition Yposition Zposition Xrotation Yrotation Zrotation 
	JOINT Spine
	{
		OFFSET -0.002400 12.777504 0.315300
		CHANNELS 3 Xrotation Yrotation Zrotation
		JOINT Spine1
		{
			OFFSET -0.002067 5.816869 0.032633
			CHANNELS 3 Xrotation Yrotation Zrotation
			JOINT Spine1_split
			{
				OFFSET -0.002067 5.816869 0.032633
				CHANNELS 3 Xrotation Yrotation Zrotation
				JOINT Spine2
				{
					OFFSET -0.002067 5.816869 0.032633
					CHANNELS 3 Xrotation Yrotation Zrotation
					JOINT Neck
					{
						OFFSET -0.003700 21.199493 -0.826900
						CHANNELS 3 Xrotation Yrotation Zrotation
						JOINT Head
						{
							OFFSET 0.000000 20.442200 4.834800
							CHANNELS 3 Xrotation Yrotation Zrotation
							JOINT HeadTop_End
							{
								OFFSET 0.000000 34.668396 4.968400
								CHANNELS 3 Xrotation Yrotation Zrotation
								End Site
								{
									OFFSET 0.000000 0.000000 0.000000
								}
							}
						}
					}
					JOINT LeftShoulder
					{
						OFFSET 3.288150 8.794197 -1.372250
						CHANNELS 3 Xrotation Yrotation Zrotation
						JOINT LeftShoulder_split
						{
							OFFSET 3.288150 8.794197 -1.372250
							CHANNELS 3 Xrotation Yrotation Zrotation
							JOINT LeftArm
							{
								OFFSET 11.953299 -2.279007 -0.146200
								CHANNELS 3 Xrotation Yrotation Zrotation
								JOINT LeftForeArm
								{
									OFFSET 18.448900 0.000000 0.000000
									CHANNELS 3 Xrotation Yrotation Zrotation
									JOINT LeftHand
									{
										OFFSET 29.527798 0.000000 0.000000
										CHANNELS 3 Xrotation Yrotation Zrotation
										JOINT LeftHandThumb1
										{
											OFFSET 10.739754 -2.369614 9.225399
											CHANNELS 3 Xrotation Yrotation Zrotation
											JOINT LeftHandThumb2
											{
												OFFSET 4.926170 -2.844131 2.844125
												CHANNELS 3 Xrotation Yrotation Zrotation
												JOINT LeftHandThumb3
												{
													OFFSET 4.614891 -2.664413 2.664409
													CHANNELS 3 Xrotation Yrotation Zrotation
													JOINT LeftHandThumb4
													{
														OFFSET 4.432465 -2.559082 2.559083
														CHANNELS 3 Xrotation Yrotation Zrotation
														End Site
														{
															OFFSET 0.000000 0.000000 0.000000
														}
													}
												}
											}
										}
										JOINT LeftHandIndex1
										{
											OFFSET 26.467674 0.187653 6.405298
											CHANNELS 3 Xrotation Yrotation Zrotation
											JOINT LeftHandIndex2
											{
												OFFSET 8.792900 0.000000 0.000000
												CHANNELS 3 Xrotation Yrotation Zrotation
												JOINT LeftHandIndex3
												{
													OFFSET 10.075203 0.000000 0.000000
													CHANNELS 3 Xrotation Yrotation Zrotation
													End Site
													{
														OFFSET 0.000000 0.000000 0.000000
													}
												}
											}
										}
										JOINT LeftHandMiddle1
										{
											OFFSET 25.764404 0.000000 0.000000
											CHANNELS 3 Xrotation Yrotation Zrotation
											JOINT LeftHandMiddle2
											{
												OFFSET 9.393974 0.000000 0.000000
												CHANNELS 3 Xrotation Yrotation Zrotation
												JOINT LeftHandMiddle3
												{
													OFFSET 10.771950 0.000000 0.000000
													CHANNELS 3 Xrotation Yrotation Zrotation
													End Site
													{
														OFFSET 0.000000 0.000000 0.000000
													}
												}
											}
										}
										JOINT LeftHandRing1
										{
											OFFSET 24.660927 0.144547 -6.225808
											CHANNELS 3 Xrotation Yrotation Zrotation
											JOINT LeftHandRing2
											{
												OFFSET 9.393799 0.000000 0.000000
												CHANNELS 3 Xrotation Yrotation Zrotation
												JOINT LeftHandRing3
												{
													OFFSET 9.928497 0.000000 0.000000
													CHANNELS 3 Xrotation Yrotation Zrotation
													End Site
													{
														OFFSET 0.000000 0.000000 0.000000
													}
												}
											}
										}
										JOINT LeftHandPinky1
										{
											OFFSET 23.655350 0.125290 -12.815412
											CHANNELS 3 Xrotation Yrotation Zrotation
											JOINT LeftHandPinky2
											{
												OFFSET 8.425102 0.000000 0.000000
												CHANNELS 3 Xrotation Yrotation Zrotation
												JOINT LeftHandPinky3
												{
													OFFSET 8.147003 0.000000 0.000000
													CHANNELS 3 Xrotation Yrotation Zrotation
													End Site
													{
														OFFSET 0.000000 0.000000 0.000000
													}
												}
											}
										}
									}
								}
							}
						}
					}
					JOINT RightShoulder
					{
						OFFSET -3.249400 8.794197 -1.372250
						CHANNELS 3 Xrotation Yrotation Zrotation
						JOINT RightShoulder_split
						{
							OFFSET -3.249400 8.794197 -1.372250
							CHANNELS 3 Xrotation Yrotation Zrotation
							JOINT RightArm
							{
								OFFSET -11.953299 -2.279007 -0.146200
								CHANNELS 3 Xrotation Yrotation Zrotation
								JOINT RightForeArm
								{
									OFFSET -18.448900 0.000000 0.000000
									CHANNELS 3 Xrotation Yrotation Zrotation
									JOINT RightHand
									{
										OFFSET -29.527802 0.000000 0.000000
										CHANNELS 3 Xrotation Yrotation Zrotation
										JOINT RightHandThumb1
										{
											OFFSET -10.739754 -2.369614 9.225399
											CHANNELS 3 Xrotation Yrotation Zrotation
											JOINT RightHandThumb2
											{
												OFFSET -4.926170 -2.844131 2.844125
												CHANNELS 3 Xrotation Yrotation Zrotation
												JOINT RightHandThumb3
												{
													OFFSET -4.614891 -2.664413 2.664409
													CHANNELS 3 Xrotation Yrotation Zrotation
													JOINT RightHandThumb4
													{
														OFFSET -4.432465 -2.559082 2.559083
														CHANNELS 3 Xrotation Yrotation Zrotation
														End Site
														{
															OFFSET 0.000000 0.000000 0.000000
														}
													}
												}
											}
										}
										JOINT RightHandIndex1
										{
											OFFSET -26.467674 0.187653 6.405298
											CHANNELS 3 Xrotation Yrotation Zrotation
											JOINT RightHandIndex2
											{
												OFFSET -8.792900 0.000000 0.000000
												CHANNELS 3 Xrotation Yrotation Zrotation
												JOINT RightHandIndex3
												{
													OFFSET -10.075203 0.000000 0.000000
													CHANNELS 3 Xrotation Yrotation Zrotation
													End Site
													{
														OFFSET 0.000000 0.000000 0.000000
													}
												}
											}
										}
										JOINT RightHandMiddle1
										{
											OFFSET -25.764404 0.000000 0.000000
											CHANNELS 3 Xrotation Yrotation Zrotation
											JOINT RightHandMiddle2
											{
												OFFSET -9.393974 0.000000 0.000000
												CHANNELS 3 Xrotation Yrotation Zrotation
												JOINT RightHandMiddle3
												{
													OFFSET -10.771950 0.000000 0.000000
													CHANNELS 3 Xrotation Yrotation Zrotation
													End Site
													{
														OFFSET 0.000000 0.000000 0.000000
													}
												}
											}
										}
										JOINT RightHandRing1
										{
											OFFSET -24.660927 0.144547 -6.225808
											CHANNELS 3 Xrotation Yrotation Zrotation
											JOINT RightHandRing2
											{
												OFFSET -9.393799 0.000000 0.000000
												CHANNELS 3 Xrotation Yrotation Zrotation
												JOINT RightHandRing3
												{
													OFFSET -9.928497 0.000000 0.000000
													CHANNELS 3 Xrotation Yrotation Zrotation
													End Site
													{
														OFFSET 0.000000 0.000000 0.000000
													}
												}
											}
										}
										JOINT RightHandPinky1
										{
											OFFSET -23.655350 0.125290 -12.815412
											CHANNELS 3 Xrotation Yrotation Zrotation
											JOINT RightHandPinky2
											{
												OFFSET -8.425102 0.000000 0.000000
												CHANNELS 3 Xrotation Yrotation Zrotation
												JOINT RightHandPinky3
												{
													OFFSET -8.147003 0.000000 0.000000
													CHANNELS 3 Xrotation Yrotation Zrotation
													End Site
													{
														OFFSET 0.000000 0.000000 0.000000
													}
												}
											}
										}
									}
								}
							}
						}
					}
				}
			}
		}
	}
	JOINT LeftUpLeg
	{
		OFFSET 11.394100 -6.187798 -0.413800
		CHANNELS 3 Xrotation Yrotation Zrotation
		JOINT LeftLeg
		{
			OFFSET 0.430247 -32.302673 3.732800
			CHANNELS 3 Xrotation Yrotation Zrotation
			JOINT LeftFoot
			{
				OFFSET -0.430247 -48.264931 -6.423300
				CHANNELS 3 Xrotation Yrotation Zrotation
				JOINT LeftToeBase
				{
					OFFSET 4.230900 -16.068199 23.438400
					CHANNELS 3 Xrotation Yrotation Zrotation
					JOINT LeftToe_End
					{
						OFFSET 4.510700 0.695400 19.974600
						CHANNELS 3 Xrotation Yrotation Zrotation
						End Site
						{
							OFFSET 0.000000 0.000000 0.000000
						}
					}
				}
			}
		}
	}
	JOINT RightUpLeg
	{
		OFFSET -11.333700 -6.187798 -0.413800
		CHANNELS 3 Xrotation Yrotation Zrotation
		JOINT RightLeg
		{
			OFFSET -0.430392 -32.302628 3.733000
			CHANNELS 3 Xrotation Yrotation Zrotation
			JOINT RightFoot
			{
				OFFSET 0.430392 -48.264973 -6.423500
				CHANNELS 3 Xrotation Yrotation Zrotation
				JOINT RightToeBase
				{
					OFFSET -4.230900 -16.068199 23.438400
					CHANNELS 3 Xrotation Yrotation Zrotation
					JOINT RightToe_End
					{
						OFFSET -4.510700 0.695400 19.974600
						CHANNELS 3 Xrotation Yrotation Zrotation
						End Site
						{
							OFFSET 0.000000 0.000000 0.000000
						}
					}
				}
			}
		}
	}
}
MOTION
Frames: 5
Frame Time: 0.016667
-0.417848 85.632553 0.299597 11.705711 -49.521696 11.404208 10.978914 2.848745 -2.161250 6.100714 5.566530 -4.284684 0.000000 0.000000 0.000000 -5.786911 6.328147 -3.046188 2.318655 9.363418 -0.265731 -4.146881 23.161863 -3.522968 -0.000000 -0.000000 -0.000000 -1.882848 -16.244761 -2.883351 0.000000 0.000000 0.000000 -10.641501 2.224945 -45.488367 -22.862373 -25.786249 -15.871720 2.491061 -2.511900 6.860467 18.457942 -9.513765 13.216583 -1.150197 11.255272 -8.400883 5.706533 8.483131 -0.820715 -0.000002 -0.000001 0.000003 -1.232800 -5.771916 -0.192313 0.133963 -0.197653 -4.602075 0.000000 0.000001 -0.000001 1.884738 4.663382 -4.597385 0.476678 -1.009834 -12.986426 -0.000005 0.000000 0.000001 3.024630 7.938948 -14.103448 -0.708057 -0.566185 -18.895735 0.000000 -0.000001 -0.000001 2.010355 6.305999 -22.386517 -0.815365 -0.210764 -16.746488 0.000001 0.000001 -0.000001 -5.080960 24.428090 1.493068 0.000000 0.000000 0.000000 6.647363 -34.818549 57.612885 -21.031971 44.833795 19.961668 -0.087233 35.608477 7.474290 55.149574 18.649522 -29.698281 -0.442561 -14.180552 7.313126 21.667008 -29.244520 9.142405 0.000001 0.000001 -0.000000 5.673411 7.585060 36.844182 1.050448 3.824456 68.900209 0.000002 0.000001 -0.000001 -0.125686 1.886095 45.000742 -1.169004 3.204673 68.417663 -0.000001 0.000001 0.000000 -5.312002 1.216640 58.508807 -0.745188 1.667569 48.011271 -0.000001 0.000000 -0.000001 -7.756771 -9.376450 47.264025 -0.526080 1.541562 45.600508 0.000002 -0.000003 0.000001 -68.323448 24.999037 43.261885 44.538035 -19.585149 3.202475 7.537213 0.565857 -11.518722 -0.806406 -6.108575 0.921732 0.000000 -0.000001 -0.000000 -38.056544 1.958800 -24.202593 52.398797 1.036555 -6.829720 -21.042474 -1.757822 25.309596 0.528348 2.970014 1.471356 -0.000000 0.000003 -0.000000 
-0.455259 85.624458 0.293458 11.689459 -49.664464 11.407774 10.976788 2.904140 -2.175824 6.133761 5.604290 -4.247333 0.000000 0.000000 0.000000 -5.764548 6.336162 -3.016235 2.313020 9.402296 -0.496343 -4.187054 23.085213 -3.410673 -0.000000 0.000000 0.000000 -1.902989 -16.283502 -3.000822 0.000000 0.000000 0.000000 -10.665524 2.222331 -45.395121 -22.827809 -25.744969 -15.838638 2.461420 -2.435297 6.885874 18.464909 -9.494840 13.214778 -1.134552 11.275828 -8.403369 5.716616 8.500865 -0.821538 -0.000003 0.000002 -0.000000 -1.233066 -5.735408 -0.262373 0.133850 -0.200949 -4.674389 -0.000003 0.000001 -0.000001 1.884274 4.658514 -4.668114 0.474427 -1.015917 -13.148156 0.000002 -0.000002 -0.000001 3.023525 7.934872 -14.172977 -0.709387 -0.572801 -19.056735 0.000003 -0.000000 -0.000002 2.010019 6.304109 -22.455439 -0.816760 -0.219698 -16.907003 0.000001 -0.000001 -0.000000 -5.036446 24.265309 1.406470 0.000000 0.000000 0.000000 6.704554 -34.680316 57.476062 -20.413752 44.915416 19.709416 0.211645 35.320254 6.345759 55.149556 18.649526 -29.698281 -0.442549 -14.180557 7.313222 21.648302 -29.254674 9.095102 0.000000 -0.000001 -0.000001 5.673391 7.585014 36.844127 1.050455 3.824503 68.900237 -0.000000 -0.000002 -0.000001 -0.125544 1.886254 45.000773 -1.169013 3.204636 68.417636 -0.000001 -0.000001 -0.000000 -5.312134 1.216699 58.508760 -0.743517 1.669647 48.011264 -0.000001 -0.000000 -0.000001 -7.756768 -9.376483 47.263994 -0.524067 1.543656 45.600467 -0.000002 -0.000001 0.000003 -68.253561 24.987902 43.317985 44.565004 -19.400792 3.266058 7.505920 0.572869 -11.606692 -0.866395 -6.348765 0.986674 0.000000 0.000001 0.000000 -38.075446 2.046995 -24.134344 52.457069 1.041236 -6.829053 -21.064076 -1.731749 25.285200 0.612553 2.963417 1.439379 -0.000000 -0.000001 0.000000 
-0.494115 85.613304 0.280425 11.543546 -49.802164 11.333478 10.996777 2.942428 -2.198430 6.210110 5.609805 -4.231203 0.000000 0.000000 0.000000 -5.697419 6.318254 -3.012860 2.193453 9.464193 -0.640304 -4.095896 23.049773 -3.380866 -0.000000 0.000000 -0.000000 -1.908074 -16.258751 -3.020666 0.000000 0.000000 0.000000 -10.687432 2.247396 -45.360027 -22.769653 -25.731448 -15.803253 2.450938 -2.428306 6.875496 18.484917 -9.440115 13.209249 -1.089328 11.335336 -8.410323 5.745640 8.552536 -0.824133 -0.000001 0.000000 -0.000000 -1.233503 -5.629207 -0.465549 0.133369 -0.210496 -4.883995 0.000000 0.000002 -0.000003 1.883513 4.644740 -4.873351 0.467264 -1.037514 -13.616822 -0.000004 0.000002 -0.000003 3.021431 7.923317 -14.374510 -0.715594 -0.596517 -19.523331 -0.000005 -0.000001 0.000001 2.012093 6.297361 -22.655584 -0.821017 -0.245817 -17.372224 -0.000001 -0.000002 -0.000001 -5.072079 24.344579 1.612734 0.000000 0.000000 0.000000 6.672734 -34.749632 56.881699 -18.584967 45.084013 18.881595 0.891883 34.215921 3.308649 55.149536 18.649541 -29.698267 -0.442574 -14.180574 7.313326 21.629544 -29.264758 9.047772 -0.000000 -0.000000 0.000000 5.673416 7.585014 36.844130 1.050400 3.824503 68.900285 0.000002 -0.000003 -0.000001 -0.125388 1.886443 45.000759 -1.169048 3.204636 68.417718 0.000000 0.000001 0.000001 -5.312250 1.216741 58.508794 -0.741745 1.671697 48.011135 0.000003 0.000000 0.000001 -7.756764 -9.376518 47.264018 -0.522046 1.545772 45.600412 -0.000002 -0.000001 -0.000001 -68.092164 25.000448 43.351224 44.596911 -19.413860 3.325612 7.438318 0.580683 -11.708799 -0.874640 -6.218652 0.996720 0.000000 -0.000001 -0.000000 -38.007612 2.121708 -24.107221 52.506222 1.079006 -6.823428 -21.031035 -1.699300 25.251780 0.552213 2.999081 1.361363 0.000000 0.000003 0.000000 
-0.529225 85.604553 0.236188 11.463433 -49.986367 11.323261 11.005681 2.975904 -2.220084 6.262223 5.612156 -4.216227 0.000000 0.000000 0.000000 -5.653939 6.298718 -3.010388 2.178523 9.585918 -0.934680 -4.140471 23.001130 -3.228225 -0.000000 0.000000 0.000000 -1.889319 -15.962422 -3.044851 0.000000 0.000000 0.000000 -10.743605 2.048053 -45.378947 -22.673253 -25.677859 -15.719323 2.461762 -2.430166 6.807759 18.516875 -9.352233 13.200239 -1.014993 11.429193 -8.416371 5.790246 8.636279 -0.824194 0.000001 0.000002 -0.000001 -1.230639 -5.459050 -0.790878 0.132207 -0.225670 -5.219965 0.000000 0.000003 -0.000000 1.882259 4.622857 -5.202249 0.455164 -1.074099 -14.367971 0.000000 0.000002 -0.000002 3.018051 7.905089 -14.697570 -0.726065 -0.634161 -20.270955 0.000001 0.000001 0.000001 2.014176 6.287018 -22.976364 -0.828509 -0.287386 -18.117845 0.000000 -0.000002 0.000000 -5.079895 24.138010 1.822010 0.000000 0.000000 0.000000 6.573145 -34.379542 55.764557 -14.830250 45.143292 17.007533 2.052955 32.012356 -1.966977 55.149533 18.649545 -29.698287 -0.442594 -14.180568 7.313393 21.610780 -29.274894 9.000454 0.000000 -0.000000 0.000001 5.673389 7.585060 36.844144 1.050428 3.824481 68.900264 0.000003 -0.000002 0.000004 -0.125244 1.886612 45.000790 -1.168990 3.204687 68.417704 -0.000003 0.000002 -0.000001 -5.312368 1.216859 58.508766 -0.740110 1.673724 48.011141 -0.000004 -0.000002 -0.000001 -7.756708 -9.376520 47.264042 -0.520062 1.547883 45.600330 0.000002 -0.000000 -0.000002 -67.949283 25.031446 43.382752 44.587495 -19.259259 3.417616 7.411741 0.562568 -11.834621 -0.931174 -6.314247 1.059093 -0.000000 -0.000001 -0.000000 -38.032331 2.259577 -24.034917 52.604587 1.106399 -6.818436 -21.020676 -1.664598 25.197859 0.666950 2.972436 1.343020 -0.000000 -0.000001 0.000000 
-0.564450 85.598152 0.196631 11.222382 -50.086382 11.269446 11.023305 3.001473 -2.252687 6.331291 5.599936 -4.228948 0.000000 0.000000 0.000000 -5.592462 6.271875 -3.037226 2.123664 9.689427 -1.179595 -4.049715 22.935628 -3.100424 0.000001 -0.000000 -0.000000 -1.896886 -15.889942 -3.087225 0.000000 0.000000 0.000000 -10.739184 2.060724 -45.364225 -22.581790 -25.698828 -15.654609 2.485491 -2.423232 6.647018 18.557592 -9.232471 13.192358 -0.915189 11.555376 -8.424784 5.850202 8.748683 -0.824570 -0.000001 0.000001 -0.000002 -1.223558 -5.230814 -1.228099 0.130547 -0.246031 -5.671139 -0.000002 0.000003 -0.000003 1.880530 4.593749 -5.644057 0.438375 -1.123012 -15.377032 0.000001 0.000000 -0.000001 3.018443 7.879852 -15.132139 -0.741087 -0.684187 -21.275454 0.000002 -0.000001 0.000001 2.016113 6.267745 -23.406874 -0.839681 -0.342800 -19.119434 0.000002 -0.000001 -0.000000 -5.134576 24.848314 2.120641 0.000000 0.000000 0.000000 6.274989 -34.716171 53.957668 -9.547842 44.108419 14.324998 3.182605 29.069401 -8.558531 55.149536 18.649548 -29.698270 -0.442584 -14.180578 7.313461 21.592009 -29.284976 8.953125 -0.000000 0.000000 -0.000001 5.673413 7.585024 36.844151 1.050422 3.824500 68.900237 -0.000005 -0.000002 0.000001 -0.125005 1.886760 45.000729 -1.169018 3.204688 68.417663 -0.000001 -0.000000 -0.000001 -5.312503 1.216876 58.508766 -0.738344 1.675775 48.011070 -0.000001 -0.000001 -0.000000 -7.756711 -9.376522 47.264025 -0.518021 1.549929 45.600252 0.000003 -0.000002 -0.000002 -67.634398 25.135827 43.227769 44.534360 -19.171414 3.557436 7.380670 0.535075 -11.988091 -0.932927 -6.277336 1.062684 0.000000 0.000000 0.000000 -37.962512 2.333710 -24.132433 52.702682 1.220379 -6.799245 -20.982700 -1.619967 25.122662 0.625099 2.940824 1.336921 -0.000000 -0.000001 -0.000000 
